<svg width="512" height="512" viewBox="0 0 512 512" fill="none" xmlns="http://www.w3.org/2000/svg">
  <rect width="512" height="512" rx="128" fill="#120F0D"/>
  <circle cx="256" cy="188" r="112" fill="url(#paint0_linear)"/>
  <path d="M150 320C150 267.533 192.533 225 245 225H267C319.467 225 362 267.533 362 320V352C362 379.614 339.614 402 312 402H200C172.386 402 150 379.614 150 352V320Z" fill="#F7EFE4"/>
  <path d="M196 274C196 240.863 222.863 214 256 214C289.137 214 316 240.863 316 274V286H196V274Z" fill="#F59E0B"/>
  <path d="M183 347C183 329.327 197.327 315 215 315H297C314.673 315 329 329.327 329 347V352C329 360.837 321.837 368 313 368H199C190.163 368 183 360.837 183 352V347Z" fill="#120F0D"/>
  <path d="M256 153C263.308 132.842 278.842 117.308 299 110C278.842 102.692 263.308 87.158 256 67C248.692 87.158 233.158 102.692 213 110C233.158 117.308 248.692 132.842 256 153Z" fill="#F7EFE4"/>
  <defs>
    <linearGradient id="paint0_linear" x1="146" y1="84" x2="367" y2="292" gradientUnits="userSpaceOnUse">
      <stop stop-color="#F59E0B"/>
      <stop offset="1" stop-color="#FB7185"/>
    </linearGradient>
  </defs>
</svg>
